<?xml version="1.0" encoding="utf-8"?>
<!-- Generator: Adobe Illustrator 18.0.0, SVG Export Plug-In . SVG Version: 6.00 Build 0)  -->
<!DOCTYPE svg PUBLIC "-//W3C//DTD SVG 1.1//EN" "http://www.w3.org/Graphics/SVG/1.1/DTD/svg11.dtd">
<svg version="1.1" id="Layer_1" xmlns="http://www.w3.org/2000/svg" xmlns:xlink="http://www.w3.org/1999/xlink" x="0px" y="0px"
	 viewBox="0.3 112.1 186.5 46.3" enable-background="new 0.3 112.1 186.5 46.3" xml:space="preserve">
<g>
	<g enable-background="new    ">
		<path d="M4.9,156.3l0.2,0.8h0l0.2-0.8l3.6-9.9h1l-4.4,11.9H4.7l-4.4-11.9h1L4.9,156.3z"/>
		<path d="M13,158.3h-1v-11.9h1V158.3z"/>
		<path d="M17.4,157.5h5.9v0.8h-6.8v-11.9h1V157.5z"/>
		<path d="M34,158.3h-1l-6.8-10.2h0v10.2h-1v-11.9h1l6.7,10.2h0v-10.2h1L34,158.3L34,158.3z"/>
		<path d="M38.3,158.3h-1v-11.9h1L38.3,158.3L38.3,158.3z"/>
		<path d="M49.9,146.4v8.1c0,1.3-0.4,2.3-1.2,3c-0.8,0.7-1.8,1-3.1,1c-1.2,0-2.3-0.3-3.1-1c-0.8-0.7-1.2-1.7-1.2-3v-8.1h1v8
			c0,1,0.3,1.8,0.9,2.3c0.6,0.5,1.4,0.8,2.3,0.8c1,0,1.8-0.3,2.4-0.8c0.6-0.5,0.9-1.3,0.9-2.4v-8L49.9,146.4L49.9,146.4z"/>
		<path d="M59.6,155.4c0-0.7-0.2-1.2-0.7-1.6c-0.5-0.4-1.3-0.8-2.5-1.1c-1.3-0.3-2.3-0.7-3-1.3c-0.7-0.5-1-1.2-1-2.1
			c0-0.9,0.4-1.6,1.1-2.2c0.7-0.6,1.7-0.9,2.9-0.9c1.2,0,2.2,0.3,3,1s1.1,1.5,1.1,2.5l0,0h-0.9c0-0.8-0.3-1.4-0.9-1.9
			s-1.3-0.8-2.3-0.8s-1.7,0.2-2.3,0.6c-0.5,0.4-0.8,1-0.8,1.6c0,0.6,0.2,1.1,0.7,1.5c0.5,0.4,1.4,0.7,2.6,1c1.3,0.3,2.3,0.8,2.9,1.3
			c0.7,0.5,1,1.3,1,2.2c0,0.9-0.4,1.7-1.2,2.3c-0.8,0.5-1.7,0.9-3,0.9c-1.2,0-2.2-0.3-3.1-0.9s-1.3-1.5-1.3-2.6v0h0.9
			c0,0.9,0.3,1.6,1,2.1c0.7,0.4,1.5,0.7,2.4,0.7c0.9,0,1.7-0.2,2.3-0.6C59.3,156.6,59.6,156.1,59.6,155.4z"/>
	</g>
	<g enable-background="new    ">
		<path fill="#2e49a2" d="M71.3,154.3L71.3,154.3c0,1.2-0.3,2.2-1.2,3c-0.8,0.8-1.9,1.1-3.3,1.1c-1.4,0-2.5-0.5-3.4-1.4
			c-0.9-0.9-1.3-2.1-1.3-3.6v-2.3c0-1.4,0.4-2.6,1.3-3.6c0.9-0.9,2-1.4,3.3-1.4c1.4,0,2.5,0.4,3.3,1.1s1.2,1.7,1.2,3v0h-1.9
			c0-0.8-0.2-1.4-0.7-1.9c-0.4-0.4-1.1-0.7-1.9-0.7s-1.4,0.3-1.9,1c-0.5,0.7-0.7,1.4-0.7,2.4v2.3c0,1,0.2,1.8,0.7,2.4
			c0.5,0.7,1.1,1,2,1c0.8,0,1.4-0.2,1.9-0.7c0.4-0.4,0.6-1,0.6-1.9L71.3,154.3L71.3,154.3z"/>
		<path fill="#2e49a2" d="M82.5,153.4c0,1.4-0.5,2.6-1.4,3.6s-2.1,1.4-3.5,1.4c-1.4,0-2.6-0.5-3.5-1.4c-0.9-1-1.3-2.2-1.3-3.6v-2.1
			c0-1.4,0.4-2.6,1.3-3.6c0.9-1,2.1-1.4,3.5-1.4c1.4,0,2.6,0.5,3.5,1.4c0.9,1,1.4,2.2,1.4,3.6V153.4z M80.5,151.2
			c0-1-0.3-1.8-0.8-2.4c-0.5-0.6-1.2-1-2.1-1c-0.9,0-1.6,0.3-2.1,1c-0.5,0.6-0.8,1.4-0.8,2.4v2.2c0,1,0.3,1.8,0.8,2.4
			c0.5,0.6,1.2,1,2.1,1c0.9,0,1.6-0.3,2.1-1c0.5-0.6,0.8-1.5,0.8-2.5L80.5,151.2L80.5,151.2z"/>
		<path fill="#2e49a2" d="M84.6,158.3v-11.9h3.8c1.5,0,2.7,0.5,3.7,1.4c0.9,0.9,1.4,2.1,1.4,3.6v1.8c0,1.5-0.5,2.7-1.4,3.6
			c-0.9,0.9-2.2,1.4-3.7,1.4H84.6z M86.6,148v8.7h1.8c1,0,1.7-0.3,2.3-1s0.9-1.5,0.9-2.5v-1.8c0-1-0.3-1.8-0.9-2.5
			c-0.6-0.7-1.3-1-2.3-1L86.6,148L86.6,148z"/>
		<path fill="#2e49a2" d="M97.7,158.3h-2v-11.9h2V158.3z"/>
		<path fill="#2e49a2" d="M109.7,158.3h-2l-5.2-8.7h0v8.7h-2v-11.9h2l5.3,8.7h0v-8.7h2L109.7,158.3L109.7,158.3z"/>
		<path fill="#2e49a2" d="M121.2,156.7c-0.3,0.5-0.8,0.9-1.6,1.2c-0.7,0.3-1.6,0.5-2.8,0.5c-1.4,0-2.6-0.5-3.5-1.4
			c-0.9-0.9-1.4-2.1-1.4-3.5v-2.5c0-1.4,0.4-2.6,1.3-3.5c0.9-0.9,2-1.4,3.4-1.4c1.4,0,2.5,0.3,3.3,1s1.2,1.6,1.2,2.7v0h-1.9
			c0-0.7-0.3-1.2-0.7-1.6c-0.4-0.4-1-0.6-1.8-0.6c-0.8,0-1.5,0.3-2,0.9c-0.5,0.6-0.7,1.4-0.7,2.3v2.5c0,1,0.3,1.7,0.8,2.4
			c0.5,0.6,1.2,0.9,2.1,0.9c0.6,0,1.1-0.1,1.5-0.2c0.4-0.2,0.7-0.3,0.9-0.5v-2.4h-2.4v-1.5h4.3V156.7z"/>
	</g>
	<g enable-background="new    ">
		<path d="M130.3,155.3c0-0.5-0.2-1-0.6-1.4c-0.4-0.3-1.1-0.7-2.2-0.9c-1.2-0.3-2.3-0.7-3-1.3c-0.7-0.6-1-1.3-1-2.2
			c0-0.9,0.4-1.7,1.1-2.3c0.8-0.6,1.7-0.9,3-0.9c1.3,0,2.3,0.3,3.1,1.1c0.8,0.7,1.1,1.6,1.1,2.5v0h-1.6c0-0.7-0.2-1.2-0.7-1.7
			c-0.5-0.5-1.1-0.7-2-0.7c-0.8,0-1.4,0.2-1.8,0.5c-0.4,0.3-0.7,0.8-0.7,1.4c0,0.5,0.2,0.9,0.7,1.3c0.5,0.3,1.2,0.7,2.3,0.9
			c1.2,0.3,2.2,0.8,2.9,1.4c0.7,0.6,1,1.4,1,2.3c0,1-0.4,1.7-1.2,2.3s-1.8,0.9-3.1,0.9c-1.2,0-2.3-0.3-3.1-1
			c-0.9-0.7-1.4-1.5-1.3-2.6v0h1.6c0,0.8,0.3,1.4,0.9,1.7c0.5,0.4,1.2,0.6,2.1,0.6c0.8,0,1.4-0.2,1.9-0.5
			C130.1,156.2,130.3,155.9,130.3,155.3z"/>
		<path d="M142.6,154.5L142.6,154.5c0,1.2-0.4,2.1-1.2,2.8c-0.8,0.7-1.9,1.1-3.2,1.1c-1.4,0-2.4-0.5-3.3-1.4c-0.9-1-1.3-2.2-1.3-3.6
			v-2.1c0-1.5,0.4-2.7,1.3-3.6c0.9-1,1.9-1.4,3.3-1.4s2.4,0.3,3.2,1.1c0.8,0.7,1.2,1.7,1.2,2.8v0h-1.6c0-0.8-0.2-1.5-0.7-2
			c-0.5-0.5-1.2-0.7-2.1-0.7c-0.9,0-1.6,0.3-2.1,1.1c-0.5,0.7-0.8,1.6-0.8,2.7v2.1c0,1.1,0.3,2,0.8,2.7c0.5,0.7,1.2,1.1,2.1,1.1
			c0.9,0,1.6-0.2,2.1-0.7c0.5-0.5,0.7-1.2,0.7-2L142.6,154.5L142.6,154.5z"/>
		<path d="M153.8,158.3h-1.6V153h-5.8v5.2h-1.6v-11.9h1.6v5.4h5.8v-5.4h1.6L153.8,158.3L153.8,158.3z"/>
		<path d="M165.7,153.4c0,1.4-0.5,2.6-1.4,3.6c-0.9,1-2.1,1.4-3.5,1.4c-1.4,0-2.5-0.5-3.4-1.4c-0.9-1-1.3-2.2-1.3-3.6v-2.1
			c0-1.4,0.4-2.6,1.3-3.6c0.9-1,2-1.4,3.4-1.4c1.4,0,2.6,0.5,3.5,1.4c0.9,1,1.4,2.2,1.4,3.6V153.4z M164.1,151.3
			c0-1.1-0.3-2-0.9-2.7c-0.6-0.7-1.4-1-2.4-1c-0.9,0-1.7,0.3-2.3,1c-0.5,0.7-0.9,1.6-0.9,2.7v2.1c0,1.1,0.3,2,0.9,2.7
			c0.5,0.7,1.3,1,2.3,1c1,0,1.8-0.3,2.4-1c0.6-0.7,0.9-1.6,0.9-2.7V151.3z"/>
		<path d="M177.2,153.4c0,1.4-0.5,2.6-1.4,3.6s-2.1,1.4-3.5,1.4c-1.4,0-2.5-0.5-3.4-1.4s-1.3-2.2-1.3-3.6v-2.1
			c0-1.4,0.4-2.6,1.3-3.6c0.9-1,2-1.4,3.4-1.4c1.4,0,2.6,0.5,3.5,1.4s1.4,2.2,1.4,3.6V153.4z M175.5,151.3c0-1.1-0.3-2-0.9-2.7
			c-0.6-0.7-1.4-1-2.4-1c-0.9,0-1.7,0.3-2.3,1c-0.5,0.7-0.9,1.6-0.9,2.7v2.1c0,1.1,0.3,2,0.9,2.7c0.5,0.7,1.3,1,2.3,1
			c1,0,1.8-0.3,2.4-1c0.6-0.7,0.9-1.6,0.9-2.7V151.3z"/>
		<path d="M181.2,157h5.6v1.3h-7.2v-11.9h1.6V157z"/>
	</g>
	<path d="M88.6,129.7c-0.3,0.1-0.7,0.3-1,0.4c-0.5,0.2-1,0.3-1.6,0.3c-0.8,0-1.5-0.2-2.1-0.6c-1-0.7-1.7-1.6-2-2.8
		c-0.1-0.5-0.2-1.1-0.2-1.7c0-1.1,0-2.2,0-3.3c0-1.5,0-3,0-4.5c0-1.5,0.1-3,0.1-4.5c0-0.1,0-0.3,0-0.4c0-0.2,0.1-0.3,0.3-0.4
		c0.2-0.1,0.4-0.1,0.5-0.2c0.5-0.1,0.9,0,1.4,0c0.1,0,0.2,0,0.3,0.1c0.2,0.1,0.4,0.3,0.3,0.6c-0.1,1.2-0.1,2.4-0.2,3.6
		c-0.1,2.6-0.1,5.3-0.2,7.9c0,0.7,0,1.5,0.1,2.1c0,0.2,0.1,0.4,0.2,0.7c0.1,0.2,0.2,0.4,0.4,0.5c0.4,0.2,0.8,0.3,1.2,0.3
		c0.3,0,0.5-0.1,0.7-0.3c0,0,0-0.1,0-0.1c-0.4-0.8-0.7-1.7-0.8-2.6c-0.1-0.5-0.1-1.1-0.1-1.6c0-0.9,0-1.9,0-2.8
		c0-1.2,0.2-2.5,0.5-3.7c0.3-0.9,0.7-1.7,1.4-2.4c0.8-0.8,1.7-1.3,2.8-1.6c1.2-0.3,2.5-0.4,3.8-0.3c0.8,0,1.6,0.2,2.4,0.5
		c1.6,0.6,2.6,1.7,3.3,3.1c0.5,0.9,0.7,1.9,0.9,2.9c0.2,1.3,0.3,2.6,0.3,4c0,0.8-0.2,1.6-0.5,2.4c-0.5,1.2-1.1,2.3-1.8,3.3
		c-0.6,0.9-1.2,1.7-1.9,2.6c-0.1,0.1-0.2,0.3-0.3,0.4c-0.1,0.2-0.1,0.3,0.1,0.5c0.1,0.1,0.3,0.2,0.4,0.3c0.5,0.2,1,0.3,1.6,0.5
		c1.1,0.2,2.1,0.5,3.2,0.7c0.7,0.1,1.3,0.3,1.9,0.7c1.2,0.7,2.1,1.6,2.3,3c0,0.3,0.1,0.5,0.1,0.8c0,0.9,0,1.9,0,2.8c0,0,0,0,0,0.1
		c-0.3,0.1-0.7,0.2-1,0.3c-1.7,0.5-3.4,0.9-5.2,1.2c-1.2,0.2-2.5,0.4-3.7,0.5c-2,0.2-4,0.2-5.9,0.1c-2.4-0.1-4.7-0.5-7.1-1.1
		c-1.1-0.3-2.1-0.6-3.1-0.9c-0.1,0-0.1-0.1-0.1-0.1c-0.3-1-0.5-2-0.4-3c0.1-1.1,0.4-2,1.2-2.8c0.4-0.3,0.8-0.6,1.3-0.8
		c1.6-0.6,3.1-1.1,4.7-1.5c0.7-0.2,1.5-0.4,2.2-0.7c0.2,0,0.3-0.2,0.5-0.3c0.2-0.1,0.2-0.3,0.1-0.5c-0.1-0.2-0.3-0.3-0.4-0.5
		C89.5,130.7,89.1,130.2,88.6,129.7L88.6,129.7 M93.8,124.6c1.1,0,2.2,0,3.3,0c1.3,0,2.3-1,2.3-2.3c0-0.5,0-1,0-1.5
		c0-1.2-1-2.3-2.3-2.3c-2.2,0-4.5,0-6.7,0c-1.2,0-2.3,1-2.3,2.3c0,0.5,0,1,0,1.5c0,0.2,0,0.3,0,0.5c0.3,1.1,1.2,1.7,2.2,1.7
		C91.7,124.6,92.7,124.6,93.8,124.6"/>
</g>
<g>
	<g>
		<g>
			<defs>
				<path id="SVGID_1_" d="M96.3,120.4c-0.8,0-1.7,0.3-2.3,0.3c-1,0-1.5-0.3-2.2-0.3c-0.8,0-2.1,0-2.6,0.2c0,0,0,0.8,0,1.5
					c0,0,0.3,0.1,0.3,0.4c0.1,0.3,0.1,1.2,1.5,1.2c1.4,0,2.2,0,2.4-1.6c0,0,0.1-0.6,0.5-0.5c0.4,0,0.5,0.5,0.5,0.5
					c0.3,1.6,1.1,1.6,2.5,1.6c1.3,0,1.5-0.9,1.6-1.2c0.1-0.3,0.3-0.4,0.3-0.4c0-0.8,0-1.5,0-1.5c-0.4-0.1-1.3-0.2-2.1-0.2
					C96.6,120.4,96.5,120.4,96.3,120.4"/>
			</defs>
			<clipPath id="SVGID_2_">
				<use xlink:href="#SVGID_1_"  overflow="visible"/>
			</clipPath>

				<radialGradient id="SVGID_3_" cx="3.381859e-02" cy="-60.3812" r="0.9997" gradientTransform="matrix(-4.7056 0 0 3.5474 94.1167 335.9143)" gradientUnits="userSpaceOnUse">
				<stop  offset="0" style="stop-color:#282928"/>
				<stop  offset="1" style="stop-color:#010101"/>
			</radialGradient>
			<rect x="89.1" y="120.3" clip-path="url(#SVGID_2_)" fill="url(#SVGID_3_)" width="9.7" height="3.3"/>
		</g>
	</g>
</g>
<g>
	<path fill="#FFFFFF" d="M89.7,122.1c0-0.3-0.2-1.2,0.7-1.3c0.9,0,1.9,0.1,2.2,0.2c0.3,0.1,0.7,0.2,0.5,1.1
		c-0.2,0.8-0.5,1.2-1.3,1.3C91,123.4,90,123.5,89.7,122.1"/>
</g>
<g>
	<g>
		<g>
			<defs>
				<path id="SVGID_4_" d="M91,123.3c-0.2,0-0.4-0.1-0.6-0.2c-0.2-0.1-0.3-0.3-0.4-0.4c-0.1-0.2-0.2-0.4-0.2-0.6c0-0.2,0-0.4,0-0.7
					c0-0.1,0-0.2,0.1-0.3c0-0.1,0.1-0.2,0.2-0.2c0.1,0,0.2-0.1,0.3-0.1c0.1,0,0.2,0,0.3,0c0.2,0,0.4,0,0.7,0c0.2,0,0.4,0,0.7,0
					c0.2,0,0.4,0,0.7,0.1c0.1,0,0.2,0,0.3,0.1s0.2,0.1,0.3,0.2c0.1,0.1,0.1,0.2,0.1,0.3c0,0.1,0,0.2,0,0.3s0,0.2,0,0.3
					c0,0.1,0,0.2-0.1,0.3c-0.1,0.2-0.2,0.4-0.3,0.5c-0.1,0.1-0.1,0.1-0.2,0.2c-0.1,0-0.2,0.1-0.3,0.1c-0.1,0-0.2,0-0.3,0
					c-0.1,0-0.2,0-0.3,0s-0.2,0-0.3,0C91.2,123.3,91,123.3,91,123.3 M90.6,120.8c0,0-0.1,0-0.2,0c0,0-0.1,0-0.2,0s-0.2,0-0.3,0.1
					c-0.1,0-0.2,0.1-0.2,0.3c0,0.1-0.1,0.2-0.1,0.3c0,0.2,0,0.4,0,0.7c0,0.2,0.1,0.4,0.2,0.6c0.1,0.2,0.3,0.3,0.4,0.5
					s0.4,0.2,0.6,0.2c0.2,0,0.4,0,0.7,0c0.1,0,0.2,0,0.3,0s0.2,0,0.3,0c0.1,0,0.2-0.1,0.3-0.1c0.1,0,0.2-0.1,0.3-0.2
					c0.1-0.2,0.2-0.4,0.3-0.5c0-0.1,0-0.2,0.1-0.3c0-0.1,0-0.2,0-0.3s0-0.2,0-0.3s0-0.2-0.1-0.3c-0.1-0.1-0.2-0.1-0.3-0.2
					c-0.1,0-0.2,0-0.3-0.1c-0.4-0.1-0.9-0.1-1.2-0.1c-0.1,0-0.3,0-0.4,0C90.8,120.8,90.7,120.8,90.6,120.8"/>
			</defs>
			<clipPath id="SVGID_5_">
				<use xlink:href="#SVGID_4_"  overflow="visible"/>
			</clipPath>

				<linearGradient id="SVGID_6_" gradientUnits="userSpaceOnUse" x1="-6.651760e-02" y1="-60.4586" x2="0.9337" y2="-60.4586" gradientTransform="matrix(3.0881 2.4315 2.4315 -3.0881 236.8218 -65.8928)">
				<stop  offset="0" style="stop-color:#333333"/>
				<stop  offset="1" style="stop-color:#1F1515"/>
			</linearGradient>
			<polygon clip-path="url(#SVGID_5_)" fill="url(#SVGID_6_)" points="91,119.1 94.5,121.7 91.8,125.1 88.4,122.4 			"/>
		</g>
	</g>
</g>
<g>
	<path fill="#FFFFFF" d="M95.1,121c0.7-0.2,2-0.2,2.4-0.2c0.4,0,0.8,0,0.7,1.2c-0.1,1.1-0.9,1.2-1.5,1.3s-1.9,0-2-1.2
		C94.6,121.2,95,121,95.1,121"/>
</g>
<g>
	<g>
		<g>
			<defs>
				<path id="SVGID_7_" d="M96.1,123.3c-0.2,0-0.4-0.1-0.6-0.2c-0.2-0.1-0.3-0.2-0.5-0.4c-0.1-0.2-0.2-0.4-0.2-0.6
					c0-0.2,0-0.4,0-0.7c0-0.1,0-0.2,0.1-0.3c0-0.1,0.1-0.2,0.3-0.2c0.4-0.1,0.9-0.1,1.3-0.2c0.2,0,0.4,0,0.7,0c0.1,0,0.2,0,0.3,0
					c0,0,0.1,0,0.2,0c0,0,0.1,0,0.2,0s0.2,0,0.3,0.1c0,0,0.1,0,0.1,0.1c0,0,0,0.1,0.1,0.1c0,0.1,0,0.2,0.1,0.3c0,0.1,0,0.2,0,0.3
					c0,0.2,0,0.4-0.1,0.7c0,0.2-0.2,0.4-0.3,0.5c-0.2,0.1-0.3,0.3-0.5,0.3c-0.2,0-0.4,0.1-0.7,0.1c0,0-0.1,0-0.2,0
					C96.4,123.3,96.2,123.3,96.1,123.3 M97.1,120.8c-0.2,0-0.4,0-0.7,0c-0.2,0-0.4,0-0.7,0.1c-0.2,0-0.4,0-0.7,0.1
					c-0.1,0-0.2,0.1-0.3,0.2c0,0.1-0.1,0.2-0.1,0.3c0,0.2,0,0.4,0,0.7c0,0.2,0.1,0.4,0.2,0.6c0.1,0.2,0.3,0.3,0.5,0.4
					c0.2,0.1,0.4,0.2,0.7,0.2c0.2,0,0.4,0,0.7,0s0.4,0,0.7-0.1c0.2,0,0.4-0.2,0.5-0.3c0.2-0.1,0.3-0.3,0.3-0.5
					c0-0.2,0.1-0.4,0.1-0.7c0-0.1,0-0.2,0-0.3s0-0.2-0.1-0.3c0,0,0-0.1-0.1-0.1c0,0-0.1-0.1-0.1-0.1c-0.1,0-0.2,0-0.3-0.1
					c0,0-0.1,0-0.2,0c0,0-0.1,0-0.2,0C97.3,120.8,97.2,120.8,97.1,120.8C97.1,120.8,97.1,120.8,97.1,120.8"/>
			</defs>
			<clipPath id="SVGID_8_">
				<use xlink:href="#SVGID_7_"  overflow="visible"/>
			</clipPath>

				<linearGradient id="SVGID_9_" gradientUnits="userSpaceOnUse" x1="-4.007476e-02" y1="-60.3407" x2="0.96" y2="-60.3407" gradientTransform="matrix(-3.3556 2.0668 2.0668 3.3556 223.1935 323.3346)">
				<stop  offset="0" style="stop-color:#333333"/>
				<stop  offset="1" style="stop-color:#1F1515"/>
			</linearGradient>
			<polygon clip-path="url(#SVGID_8_)" fill="url(#SVGID_9_)" points="99.5,122.7 95.7,125 93.5,121.5 97.3,119.1 			"/>
		</g>
	</g>
</g>
</svg>
